<mxfile host="app.diagrams.net" modified="2022-04-02T11:31:56.634Z" agent="5.0 (Macintosh; Intel Mac OS X 10_15_7) AppleWebKit/537.36 (KHTML, like Gecko) Chrome/99.0.4844.84 Safari/537.36" etag="1C0-er8FaP4ZjwERH6Bp" version="17.2.1" type="github">
  <diagram id="FW3Xu6aLZYGO1agyV_pT" name="Page-1">
    <mxGraphModel dx="1426" dy="817" grid="1" gridSize="10" guides="1" tooltips="1" connect="1" arrows="1" fold="1" page="1" pageScale="1" pageWidth="827" pageHeight="1169" math="0" shadow="0">
      <root>
        <mxCell id="0" />
        <mxCell id="1" parent="0" />
        <mxCell id="hNHz1apy1t6UOM9RCCP0-1" value="Yandex Cloud" style="rounded=0;whiteSpace=wrap;html=1;verticalAlign=top;fillColor=#dae8fc;strokeColor=#6c8ebf;" vertex="1" parent="1">
          <mxGeometry x="20" y="40" width="660" height="290" as="geometry" />
        </mxCell>
        <mxCell id="hNHz1apy1t6UOM9RCCP0-2" value="Jenkins Master (VM)" style="rounded=0;whiteSpace=wrap;html=1;verticalAlign=top;fillColor=#f5f5f5;fontColor=#333333;strokeColor=#666666;" vertex="1" parent="1">
          <mxGeometry x="100" y="120" width="240" height="150" as="geometry" />
        </mxCell>
        <mxCell id="hNHz1apy1t6UOM9RCCP0-3" value="Jenkins CPU Slave 1 (VM)" style="rounded=0;whiteSpace=wrap;html=1;verticalAlign=top;fillColor=#f5f5f5;fontColor=#333333;strokeColor=#666666;" vertex="1" parent="1">
          <mxGeometry x="370" y="120" width="240" height="150" as="geometry" />
        </mxCell>
        <mxCell id="hNHz1apy1t6UOM9RCCP0-4" value="Localhost" style="rounded=0;whiteSpace=wrap;html=1;verticalAlign=top;fillColor=#f5f5f5;fontColor=#333333;strokeColor=#666666;" vertex="1" parent="1">
          <mxGeometry x="80" y="480" width="270" height="220" as="geometry" />
        </mxCell>
        <mxCell id="hNHz1apy1t6UOM9RCCP0-6" style="edgeStyle=orthogonalEdgeStyle;rounded=0;orthogonalLoop=1;jettySize=auto;html=1;exitX=0.5;exitY=0;exitDx=0;exitDy=0;entryX=0.5;entryY=1;entryDx=0;entryDy=0;" edge="1" parent="1" source="hNHz1apy1t6UOM9RCCP0-5" target="hNHz1apy1t6UOM9RCCP0-2">
          <mxGeometry relative="1" as="geometry" />
        </mxCell>
        <mxCell id="hNHz1apy1t6UOM9RCCP0-7" value="code + data" style="edgeLabel;html=1;align=center;verticalAlign=middle;resizable=0;points=[];" vertex="1" connectable="0" parent="hNHz1apy1t6UOM9RCCP0-6">
          <mxGeometry x="0.1925" y="-1" relative="1" as="geometry">
            <mxPoint as="offset" />
          </mxGeometry>
        </mxCell>
        <mxCell id="hNHz1apy1t6UOM9RCCP0-5" value="Jupyter Notebook" style="rounded=0;whiteSpace=wrap;html=1;" vertex="1" parent="1">
          <mxGeometry x="155" y="530" width="120" height="60" as="geometry" />
        </mxCell>
        <mxCell id="hNHz1apy1t6UOM9RCCP0-8" value="Training Pipeline" style="rounded=0;whiteSpace=wrap;html=1;" vertex="1" parent="1">
          <mxGeometry x="125" y="165" width="120" height="35" as="geometry" />
        </mxCell>
        <mxCell id="hNHz1apy1t6UOM9RCCP0-10" style="edgeStyle=orthogonalEdgeStyle;rounded=0;orthogonalLoop=1;jettySize=auto;html=1;exitX=0.75;exitY=1;exitDx=0;exitDy=0;entryX=0;entryY=0.5;entryDx=0;entryDy=0;" edge="1" parent="1" source="hNHz1apy1t6UOM9RCCP0-9" target="hNHz1apy1t6UOM9RCCP0-3">
          <mxGeometry relative="1" as="geometry" />
        </mxCell>
        <mxCell id="hNHz1apy1t6UOM9RCCP0-9" value="Scheduler" style="rounded=0;whiteSpace=wrap;html=1;rotation=-90;" vertex="1" parent="1">
          <mxGeometry x="250" y="180" width="120" height="30" as="geometry" />
        </mxCell>
      </root>
    </mxGraphModel>
  </diagram>
</mxfile>
